<svg xmlns="http://www.w3.org/2000/svg" height="48" viewBox="0 96 960 960" width="48"><path d="M110.232 971.999q-28.891 0-49.792-20.901-20.9-20.9-20.9-49.792V423.77q0-27.725 20.9-49.208 20.9-21.484 49.792-21.484H244l77-90.077h266.769V387.77h113.384v113.999h124.384v399.537q0 28.892-21.484 49.792-21.483 20.901-49.208 20.901H110.232Zm322.616-150.846q67.305 0 113.151-45.964 45.846-45.963 45.846-113.268 0-68.305-45.964-113.843-45.963-45.539-113.268-45.539-68.305 0-113.843 45.656-45.539 45.656-45.539 113.961 0 67.305 45.656 113.151 45.656 45.846 113.961 45.846Zm-.385-58.384q-43.309 0-72.079-29.267-28.769-29.267-28.769-71.464 0-43.197 28.833-72.156 28.832-28.959 71.846-28.959 42.013 0 71.59 28.959 29.577 28.959 29.577 72.156 0 42.197-29.344 71.464-29.345 29.267-71.654 29.267Zm333.575-351.923v-88.461h-87.962v-50.884h88.462v-88.576h50.883v89.076h88.577v50.884h-89.077v87.961h-50.883Z"/></svg>