<svg width="34" height="30" viewBox="0 0 34 30" fill="none" xmlns="http://www.w3.org/2000/svg">
<path d="M17.0049 23.5481C18.8799 23.5481 20.4541 22.9097 21.7276 21.6329C23.0011 20.3562 23.6378 18.7803 23.6378 16.9054C23.6378 15.0134 22.9994 13.4349 21.7226 12.17C20.4459 10.905 18.87 10.2725 16.9951 10.2725C15.1031 10.2725 13.5246 10.9066 12.2596 12.1748C10.9947 13.4431 10.3622 15.0232 10.3622 16.9152C10.3622 18.7901 10.9963 20.3643 12.2646 21.6378C13.5328 22.9113 15.1129 23.5481 17.0049 23.5481ZM3.4456 29.8333C2.65835 29.8333 1.97062 29.5436 1.38239 28.9643C0.794172 28.3849 0.500061 27.6927 0.500061 26.8878V6.86546C0.500061 6.09532 0.794172 5.41187 1.38239 4.81512C1.97062 4.21835 2.65835 3.91996 3.4456 3.91996H9.0866L12.3109 0.166748H21.7308L24.9551 3.91996H30.5544C31.3423 3.91996 32.0302 4.21835 32.6181 4.81512C33.206 5.41187 33.5 6.09532 33.5 6.86546V26.8878C33.5 27.6927 33.206 28.3849 32.6181 28.9643C32.0302 29.5436 31.3423 29.8333 30.5544 29.8333H3.4456Z" fill="white"/>
</svg>
